<svg width="8" height="13" viewBox="0 0 8 13" fill="none" xmlns="http://www.w3.org/2000/svg">
<path d="M7.78279 7.00726L1.72295 12.7923C1.5828 12.9262 1.3957 13 1.1962 13C0.996706 13 0.809609 12.9262 0.669453 12.7923L0.223188 12.3664C-0.0671998 12.0888 -0.0671998 11.6378 0.223188 11.3606L5.31178 6.5027L0.217542 1.63936C0.0773851 1.50545 0 1.32694 0 1.13659C0 0.946033 0.0773851 0.767522 0.217542 0.633507L0.663807 0.207681C0.804074 0.0737715 0.99106 0 1.19056 0C1.39005 0 1.57715 0.0737715 1.71731 0.207681L7.78279 5.99802C7.92328 6.13236 8.00044 6.31171 8 6.50238C8.00044 6.69378 7.92328 6.87303 7.78279 7.00726Z" fill="white"/>
</svg>
