<?xml version="1.0" encoding="UTF-8"?>
<svg id="Layer_1" data-name="Layer 1" xmlns="http://www.w3.org/2000/svg" viewBox="0 0 192 56">
  <defs>
    <style>
      .cls-1 {
        fill: #1d1d1b;
      }

      .cls-2 {
        fill: #f18626;
      }
    </style>
  </defs>
  <g>
    <path class="cls-1" d="m70.49,21.66h3c3.76,0,5.52-1.81,5.52-3.67,0-.67-.14-2.76-3.9-2.76h-3.28l-1.33,6.43Zm-2.71,13.39h3.24c4.24,0,5.52-2.33,5.52-3.91,0-.48-.14-1-.38-1.43-.86-1.43-2.33-1.48-3.62-1.48h-3.38l-1.38,6.81m13.94-26.6c7.43,0,9.9,4,9.9,7.48,0,4.29-3.48,8.01-8.24,8.87l-.05.19c4.09.33,6.09,3.38,6.09,6.2,0,4.82-4.48,10.63-14.24,10.63h-20.9l6.76-33.37h20.66"/>
    <path class="cls-1" d="m104.91,25.43c-.76,1.52-1.62,5.48-1.62,7.48s1,2.34,1.76,2.34c1.86,0,2.67-1.62,3.1-2.86.62-1.72,1.28-4.48,1.28-6.58,0-.72-.09-2.39-1.85-2.39-1.57,0-2.33,1.34-2.66,2Zm17.28,1.47c0,8.06-6.8,15.49-18.23,15.49s-13.42-6.91-13.42-10.25c0-7.87,6.14-15.87,18.37-15.87,9.85,0,13.28,5.34,13.28,10.63"/>
    <path class="cls-1" d="m144.8,16.85c-3.77.44-7.23,2.98-8.62,5.67h-.19l1.19-5.67h-11.24l-5.09,24.98h11.99l1.86-9.06c1.01-4.82,8.13-6.22,8.13-6.22l1.96-9.7Z"/>
    <path class="cls-1" d="m161.28,26.55h9.84l1.97-9.7h-9.84l1.51-8.07-11.96.11-1.55,7.95h-3.23l-1.88,9.7h3.15l-1.27,6.12c-.24,1.19-.38,2.29-.38,3.48,0,4.49,3.76,6.25,8.52,6.25,3.48,0,6.05-.76,7.57-1.28l1.48-7.2c-1.33.33-2.14.48-2.81.48-1.28,0-2.19-.72-2.19-2.15,0-.38.04-.76.14-1.15l.94-4.54Z"/>
    <path class="cls-1" d="m168.6,12.77v-.88c0-.28.05-.28.34-.28.43,0,.67.15.67.57,0,.54-.44.59-.92.59h-.1Zm0,.17c.91-.09.77.9,1.14,1.16.15.1.33.07.49.07h.19v-.12c-.29,0-.36-.24-.51-.53-.15-.31-.32-.65-.62-.68h0c.4-.03.79-.31.79-.72,0-.56-.47-.67-1.14-.67h-1.17v.12c.33,0,.34.06.34.2v2.07c0,.14-.01.2-.34.2v.12h1.16v-.12c-.32,0-.33-.06-.33-.2v-.91Zm.34,2.31c1.49,0,2.47-.99,2.47-2.34s-.97-2.33-2.46-2.33-2.41,1.05-2.41,2.35.95,2.32,2.4,2.32Zm.01-4.37c1.24,0,2.1.8,2.1,2.03s-.85,2.05-2.06,2.05-2.11-.8-2.11-2.05.86-2.03,2.06-2.03Z"/>
    <path class="cls-2" d="m49.25,25.61c0,13.18-10.68,23.86-23.86,23.86S1.53,38.78,1.53,25.61,12.21,1.75,25.39,1.75s23.86,10.68,23.86,23.86Z"/>
    <path class="cls-1" d="m17.67,28.18c-.02.13-.01.12,0,.03,0,0,0-.02,0-.03h-.01Z"/>
    <path class="cls-1" d="m10.45,30.6c0,.14,0,.22,0,.25,0-.09,0-.17,0-.25h-.01Z"/>
    <path class="cls-1" d="m12.76,22.18c.07.12.14.25.22.39.01,0,.02,0,.03,0-.05-.06-.14-.2-.24-.38h0Z"/>
    <path class="cls-1" d="m11.81,22.11s-.03.06-.04.09h.04s.02-.07.02-.09h-.02Z"/>
    <path class="cls-1" d="m9.99,29.56l-.32.05-.16.03h-.01s0,.03,0,.05l.12-.02.23-.04.62-.1s0-.04,0-.05l-.47.08Z"/>
    <path class="cls-1" d="m12.75,22.16s-.04-.06-.05-.08h0s.03.06.05.08h0Z"/>
    <path class="cls-1" d="m11.89,22.2h-.08s0,.02,0,.03h.13s.52-.03.52-.03c.1,0,.21,0,.31-.01,0,0,0-.02-.01-.03-.28.01-.57.03-.86.04Z"/>
    <path class="cls-1" d="m9.47,29.65h.03c.01-.2,0-.12-.03,0Z"/>
    <path class="cls-1" d="m11.17,26.3h0s0-.08.02-.14c0,.05-.01.09-.02.14Z"/>
    <path class="cls-1" d="m23.3,21.72c-.02.09-.04.14-.05.14-.02.14-.04.24.05-.12,0,0,0-.01,0-.02h0Z"/>
    <path class="cls-1" d="m10.54,20.05s0-.02,0,.03c0,.04.01.09.02.13,0-.06,0-.11-.01-.16Z"/>
    <path class="cls-1" d="m18.52,30.66c0,.23-.01.46-.02.64,0-.03.02-.31.02-.64Z"/>
    <path class="cls-1" d="m18.78,30h-.04c.01.17.02.41.04,0Z"/>
    <path class="cls-1" d="m18.78,28.27h.02c0-.16-.01-.1-.02,0Z"/>
    <path class="cls-1" d="m18.78,30c0-.16,0-.29,0-.42,0,.19,0,.33-.01.42h0Z"/>
    <path class="cls-1" d="m10.69,21.83c.05.5.09.74.03.06h0s0-.05-.01-.08h-.02Z"/>
    <path class="cls-1" d="m10.46,30.85v.03h.02v-.1c0,.06-.01.11-.02.07Z"/>
    <path class="cls-1" d="m22.64,22.44h0c0,.06,0,.03.01-.04h-.02s0,.03,0,.04Z"/>
    <path class="cls-1" d="m10.96,30.76c0-.06,0-.12,0-.15h-.01s0,.1,0,.15h.01Z"/>
    <path class="cls-1" d="m22.8,21.73s0,.03,0,.05c0-.01,0-.03,0-.05h0Z"/>
    <path class="cls-1" d="m10.53,20.08c-.02-.15-.04-.23,0,.34h.02c-.01-.15-.02-.27-.02-.34Z"/>
    <path class="cls-1" d="m18.7,30.02h.03c-.01-.11-.02-.17-.03,0Z"/>
    <path class="cls-1" d="m8.61,33.72h.05s.1,0,.1,0c.21,0,.4,0,.61,0v-.05c-.24,0-.47,0-.71,0h-.06c0,.13-.01.33.02.05Z"/>
    <path class="cls-1" d="m16.67,31.68s0,.04,0,.07c0,0,0,0,0,0,0-.04,0-.06,0-.07Z"/>
    <path class="cls-1" d="m12.25,27.61h0c-.03.08-.02,0,.01-.18h0c-.02.1-.04.18-.05.25h.03s.01-.05.02-.08Z"/>
    <path class="cls-1" d="m9.59,28.11c.01-.09.02-.17.03-.25.02-.35-.02-.08-.06.34.02-.16.03-.15.03-.09Z"/>
    <path class="cls-1" d="m11.71,24.59s0-.02,0-.03h0s0,.03,0,.03Z"/>
    <path class="cls-1" d="m9.42,33.58h.02c0-.17,0-.1-.02,0Z"/>
    <path class="cls-1" d="m9.39,33.41h0c0,.1,0,.18-.01.26h0c0-.06,0-.14.01-.26Z"/>
    <path class="cls-1" d="m17.72,28.3s0-.04.01-.06c0,.02,0,.04-.01.06h0Z"/>
    <path class="cls-1" d="m12.27,27.27s0,0,0,0c-.01.05-.03.11-.04.17h.03c.01-.06.02-.12.04-.18h-.02Z"/>
    <path class="cls-1" d="m8.59,33.67h0c0-.13,0-.2-.04.26h.01c0-.09.01-.17.02-.26Z"/>
    <path class="cls-1" d="m16.55,33.35c-.02.45,0,.33.02.01,0,0,0,0,0-.01h-.02Z"/>
    <path class="cls-1" d="m18.75,28.53s0,.04,0,.07c0-.01,0-.04,0-.07Z"/>
    <path class="cls-1" d="m18.47,31.12h-.02c0,.19,0,.15.02,0Z"/>
    <path class="cls-1" d="m10.28,27.85l1.27-.07.64-.03s0-.03,0-.05l-1.22.07-.91.05-.43.02s0,.03,0,.05l.64-.03Z"/>
    <path class="cls-1" d="m9.62,27.84h.03c.05-.53.02-.37-.03.02,0,.01,0,.03,0,.05,0-.03,0-.05,0-.08Z"/>
    <path class="cls-1" d="m21.37,24.65s0,.05-.01.09h0c0-.05.01-.08.01-.09Z"/>
    <path class="cls-1" d="m12.03,22.93c-.01.06-.03.14-.05.27h0c.02-.11.04-.2.05-.27Z"/>
    <path class="cls-1" d="m10.47,29.48h0s0-.08,0-.12c0,0,0,.03-.01.12Z"/>
    <path class="cls-1" d="m13.66,22.6c0-.06,0-.12,0-.18h0c0,.19,0,.34,0,.46h0c0-.1,0-.19,0-.28Z"/>
    <path class="cls-1" d="m9.42,29.63c-.04.44,0,.19.05.02h-.03c0,.05-.01.04-.01-.02Z"/>
    <path class="cls-1" d="m21.33,24.95h0s-.01.07-.02.11h0s.01-.08.02-.11Z"/>
    <path class="cls-1" d="m13.66,22.33h0s0,.05,0,.07h0s0-.04,0-.07Z"/>
    <path class="cls-1" d="m10.49,29.48s0-.01,0-.01h0s0,.01,0,.01Z"/>
    <path class="cls-1" d="m12.05,22.97s.01-.07.02-.1c.02-.16.03-.3-.04.07.04-.19.03-.09.02.04Z"/>
    <path class="cls-1" d="m10.97,30.76h.02v-.05h-.02v.05Z"/>
    <path class="cls-1" d="m21.11,26.1s-.01.07-.02.11h0s.01-.07.02-.11Z"/>
    <path class="cls-1" d="m10.48,29.48s0,.03,0,.05h.02s0-.04,0-.06h-.02Z"/>
    <path class="cls-1" d="m13.67,23.01h0s0-.07,0-.1h0s0,.07,0,.1Z"/>
    <path class="cls-1" d="m22.51,21.96s0,.02,0,.03h.01s0-.02,0-.03h0Z"/>
    <path class="cls-1" d="m37.23,14.62s0-.01,0-.02c.07,0,.14,0,.21,0-.07,0-.14,0-.21.01Zm-5.66-1.77s.02-.05.03-.07c.11,0,.22,0,.32,0l3.07-.06,1.33-.03.15.24c-1.65-.03-3.28-.05-4.9-.08Zm-2.78,6.15c.02-.14.02-.24,0-.24-.09,0-.19,0-.28,0,0-.07,0-.13.01-.2.8.03,1.59.06,2.39.09-.71.12-1.42.24-2.13.36Zm.95-6.18c.62-.01,1.24-.03,1.86-.04,0,.02-.02.04-.03.07-.61,0-1.22-.02-1.83-.03Zm-2.85,5.89c-.33,0-.66-.01-.99-.02.02-.12,0-.08-.03,0-.58-.01-1.16-.03-1.73-.04l-1.54-.14-2.73-.25c2.57.09,5.15.19,7.72.28l-.7.19Zm-3.86,3.02h.23s-.01.05-.02.08h-.45s0-.02,0-.03c0,.01,0,.03,0,.04h-.01s0-.01,0-.02c0-.02.01-.04.02-.06h0s0-.01,0-.02h0s0,.01,0,.02h.23Zm-.33.34c0-.05.02-.12.04-.2,0,0,0-.01.01-.03-.07.34-.06.31-.05.22Zm-.07-.05s-.04,0-.06,0c0-.02.01-.04.02-.07h.12s0,.03-.02.06h-.06Zm-.07,0h-.02s0-.05.01-.07h.02s-.01.04-.02.07Zm-.11.43h-.02s0-.02,0-.04h.01s0,.02,0,.04Zm.07-.46h-.01s0,.02,0,.03c0,0-.01,0-.02,0,0-.02,0-.03.01-.04l-.12-.02h.1s.03-.01.03-.01h.03s0,.02,0,.04Zm-.13.47h-.04s0-.02,0-.03h.03s0,0,0,0c0,.01,0,.02,0,.04Zm-.3,1.05c-.37,0-.73-.02-1.1-.02.34-.03.67-.06,1.01-.1,0,0,.02,0,.02,0h.08c.02-.05.02,0,0,.12h0Zm-4.41,4.7s-.01.07-.02.1h-.02s-.17.03-.17.03c0-.04,0-.09,0-.13l.19-.03s.01-.1.03-.17h-.08s-.13.04-.13.04c0-.03,0-.06,0-.09.05,0,.1-.02.15-.02.09-.02.27-.81.26-1h.05c-.05.31-.22,1.06-.28,1.28Zm-.03.17l-.18.02s0,0,0,0l.07-.02.11-.02s0,.02,0,.02Zm.4-1.64s-.02.08-.03.12h-.02s.02-.08.02-.12h.03Zm1.22-.14l1.27-.15.32-.04.16-.02s-.01.08-.02.12h-.08s-1.33.17-1.33.17l-1.57.19s.02-.09.03-.13l1.22-.14Zm-1.63,1.9s-.01.06-.02.09h-.16s0-.09,0-.14l.17-.02c0,.06,0,.08,0,.07Zm-.04.22c0,.06,0,.05.01,0l.27-.03.55-.06.27-.03s0,.04,0,.05c-.42.04-.84.09-1.27.13,0-.02,0-.03,0-.05h.15Zm.09-.29l.91-.09h.15c0,.06,0,.1,0,.12,0,.02,0,.04,0,.06,0-.04.01-.02.01.13,0,0-.02,0-.03,0,0-.02,0-.04,0-.06,0,.02,0,0-.01-.11h-.07s-.56.06-.56.06l-.44.04s.03-.1.04-.16Zm.84,1.35c-.06.01-.12.03-.18.05h-.04s-.26.03-.26.03h-.11c.2-.04.39-.09.58-.15,0,.02,0,.04,0,.07Zm.07-.09c.06-.02.12-.22.17-.44,0,.14,0,.29,0,.47l-.07.02-.14.04s-.01,0-.02,0v-.07s.04,0,.06-.02Zm-.07.25s-.01,0-.02,0v-.04h.02v.04Zm-.25.02l.08-.02.11-.03h.04s0,0,0,0h0s0,.02,0,.03c-.07,0-.15.01-.23.02Zm-.84-1.23h.01s0,.03,0,.05c0,0,0,0,0,0,0-.02,0-.04,0-.05Zm.02-.4s0-.08,0-.11c0,0,0-.01,0-.02h.01s0,.08,0,.13h-.02Zm0,.06s0,0,0,0h.01s0,0,0,0h-.02Zm0,.06h.01c0,.05,0,.1-.01.15h-.01c0-.05,0-.1,0-.15Zm-.02-.05s0,0,0,0h0s0,0,0,0h0Zm-.01.05h.02s0,.1,0,.15h-.05s.03-.09.04-.15Zm.08-.41s0,.03,0,.05c0-.01,0-.03,0-.05t0,0Zm-.07.69s0,.03,0,.05c-.04,0-.08,0-.12.01,0-.01.02-.03.03-.05h.09Zm0-1.92l.36-.04.19.03s.01-.01,0,.07h-.08c-.16-.01-.32-.04-.48-.06Zm-.77,4.75s0,.05,0,.07h-.16s-.16,0-.16,0l.32-.08Zm-.82.1h-.2c.34-.08.69-.17,1.03-.26,0,.02,0,.03,0,.05-.28.07-.55.14-.82.21Zm-.26.35s-.02,0-.03,0c-.27.01-.55.02-.82.03.01,0,.02,0,.04,0,.28-.01.54-.02.82-.03Zm.26-.01c.1,0,.21,0,.3-.01l.41-.02h.05s0,0,0,0c-.27.01-.53.02-.8.03h.03Zm.81-.2s0,.05-.01.08c0,0,0,.03,0,.1h-.02s.01-.06.02-.1c0,0,0,.05-.02.1h0s0-.04,0-.09h-.38s.41-.09.41-.09Zm-.22,1.22c.06-.02.13-.24.18-.48,0,.13-.02.28-.03.46l-.1.02-.2.05-.81.2-1.59.38c-.09.02-.18.04-.27.07,0,0,0-.01,0-.02.94-.23,1.88-.46,2.82-.69Zm-2.87.95s0-.02-.01-.02h0s0-.02,0-.04h-.04s-.28,0-.28,0c.12-.03.23-.06.35-.09,0,.05-.01.1-.02.15Zm-.18.92s0,.04-.01.09h-.04s.04-.04.05-.09Zm.04-.12c-.09.59-.03.13-.04.12.01-.03.03-.07.04-.12Zm-.58-.86c.24-.06.48-.12.72-.18,0,0,0,0,0,.02,0,0,0,0,.01,0,0,0,0-.01,0-.02,0,0,.02,0,.02,0,0,0,0,.01,0,.02,0,0-.02,0-.03,0,0,.04-.01.06-.01,0-.22.05-.43.1-.64.16h-.07Zm-.26-7.79h0s-.02,0-.02,0c0,0,0,0,0,0h-.01s-.03,0-.03,0h0s-.07.02-.11.02c-.02,0-.04.05-.07.11l-.87.12-.16.02h-.09s.01-.08.02-.11h.09s.64-.1.64-.1l.54-.07s.02-.06.03-.09c0,0,.01,0,.02,0,0,.03-.01.06-.02.09h.01s0-.04.01-.05h.02s0,.03-.01.05l.17-.02h.03s.01,0,.01,0c-.07,0-.14.02-.21.03Zm-.68-1.45h-.09s.13-.01.13-.01l.31-.03.63-.06h.06s.98,0,.98,0l-.77.07-.36.03h-.88Zm-.12-.21c0-.06.01-.09.01-.11.31,0,.63.01.94.02l-.27.02-.61.05h-.08Zm-.09.32s0-.07.02-.11h0s-.01.08-.01.11h0Zm.04-.23h0s-.01.08-.02.11h0s.01-.07.02-.11Zm2.54,7.51s-.03,0-.04.01c-.06,0-.13,0-.19,0,.01,0,.03,0,.04,0,.06,0,.13,0,.19,0Zm-.51-9.3v-.1c.85-.07,1.7-.14,2.55-.21.13.02.25.04.37.06-.42.04-.85.07-1.28.11l-1.39.12h-.18s-.08.02-.08.02Zm-.04.1s0-.08,0-.19h.03s0,.15-.01.19h0Zm.99-4.67l-.11.13c-.05.03-.1.05-.16.08l.32-.37s.06,0,.08,0l-.13.15Zm-1.06,3.9v-.07h0s0,.04,0,.07h0Zm-.4.02c-.11,0-.21,0-.32.01-.01-.02-.02-.04-.03-.06.05,0,.1-.02.14-.03l.51-.02s.05,0,.07.01l-.36.09Zm-.27.07s0,.01-.03-.03c.06,0,.12,0,.18,0l-.14.03Zm.33-1.75l-.03.04h-.04l.07-.04Zm2.84-2.03s0,0,.01.01h0s0,0,0-.01Zm-.62,1.9c.16,0,.32,0,.49-.01-.18.05-.36.09-.53.14.01-.03.02-.07.04-.13Zm.11-1l.08-.04c-.02.11-.02.19,0,.2,0,0,0,0,.01,0-.05.17-.1.33-.14.47l-.92.02c.07-.08.15-.17.23-.26l.72-.38Zm.1-.15s0,.06-.01.08l-.71.37-.06.03s.08-.09.12-.13l.66-.35Zm-.23,1.15c-.01.05-.02.1-.03.13-.41,0-.82.01-1.23.02.04-.04.07-.08.11-.13.38,0,.76-.01,1.15-.02Zm-.71-.27c-.06,0-.12,0-.19,0,.02-.03.05-.05.07-.08.31,0,.62,0,.93-.02,0,.03-.01.05-.02.08-.26,0-.53,0-.79.01Zm1.95,2.48h0s0,.05,0,0Zm1.19,3.96h.11s0,.06,0,.08l-.26.03-.37-.05c.18-.02.35-.04.53-.06Zm4.56-10.5c-.46,0-.93.01-1.39.02-2.35.04-4.7.19-7.07.38l-2.89-.11-.86-.03-.43-.02h0s0-.03.01-.06h.16s.28,0,.28,0h.55c2.89-.05,5.37-.09,7.39-.13m-4.75-3.48h-.03c-.03.36-.02.15,0-.03.74-.01,1.48-.02,2.23-.03-.12.03-.23.06-.35.1l-1.48-.02h-.24s-.12,0-.12,0Zm7.41,12.43l.21-.03h.11c0,.05,0,.08,0,.09h-.03c-.25,0-.5,0-.75,0l.46-.06Zm.36-.05h.02s0,.06-.01.1h-.04s.02-.06.03-.1Zm-9.81,10.57c-.14.02-.27.04-.41.06-.13-.06-.27-.12-.4-.17.14-.02.29-.04.43-.06.13.06.25.12.38.18Zm-.42-3.74l-.05.02v-.02s.1-.01.15-.01l-.09.02Zm-.05-1.19s0-.07,0-.1c0,0,.01,0,.03,0,0,.03,0,.06,0,.1h-.02Zm-.46-1.12h0s.07-.02.07-.02l.17-.02-.24.04Zm.04-.24h.02c0,.08-.01.06-.02,0Zm1.83,8.66c.02-.06.04-.06,0,0h0Zm-3-4.11s0-.04.01-.06c.08,0,.16,0,.25,0-.08.02-.17.04-.26.06Zm1.11-4.45s0-.06,0-.09h0s0,.06,0,.09h0Zm-.89-1.07s0-.04.01-.07h.07s.3-.02.3-.02l.26-.02c-.22.04-.43.07-.65.11Zm2.23-6.38c.02-.06.03-.09.03-.11.17.03.34.05.51.08l-.54.03Zm.69-1.49c.06,0,.11,0,.16,0l-.02.03-.14-.02h0Zm38.73-6.09l.1-.55-3.85-.04c.07-.4.07-.54.07-.54h-.18s-.7-.01-.7-.01c-1.82-.03-.75-.07-2.01-.09h-.06c-.94-.68-.77-.82-1.04-1h-.03s-.25,0-.25,0l-.98.03c-1.3.04-2.54.08-3.73.11h-.42s-.28-.42-.28-.42l-.17-.52v-.02c.44.22-.64-.32-.54-.27h-.05s-.1,0-.1,0h-.2s-.4.01-.4.01l-.79.02-1.52.03c-1.98.04-3.78.07-5.4.11-1.26.02-2.41.05-3.47.07-.26-.1-.51-.21-.77-.31-.2-.08-.88-.53-1.14-.46-1.1.29-2.19.59-3.28.88-5.28.11-6.29.14-6.29.14l-.05.02c-.86,0-1.73.02-2.59.03-.09,0-.32,1.05-.24,1.05.85-.02,1.7-.03,2.55-.04-.01.12-.03.3-.05.58-.04.01-.08.02-.12.03,0,0-.03.02-.04.04l-12.91.49h12.76c-.02.14-.04.27-.05.36-.52.04-1.04.07-1.54.11l-1.16.08h-.07s-.04,0-.04,0c.02-.13-.03.15-.11.56-.1.26-.22.87-.17.93-.04.19-.07.37-.1.51h-.21s-.1-.01-.1-.01c-.19.81.19-1.23-.2.56-.02,0-.05,0-.08,0-.1,0-.32,1.04-.24,1.05.03,0,.06,0,.09,0-.03.18-.07.36-.12.56l1.74-.15c1-.08,1.99-.17,2.98-.25.34.01.68.03,1.01.04l-.34.39c-1,.52-1.99,1.05-2.99,1.57h-.82c-.09-.64-.09-.44-.05.03h0s.13,0,.13,0h.53s.16-.01.16-.01c-.05.02-.1.05-.15.07-.19,0-.4,0-.59.01h-.06c.01.21,0,.17,0,.08,0,.06,0,.13.02.2h.1s-.06.03-.09.05c0-.02,0-.04,0-.05h-.01s0,.04,0,.05c0,0-.01,0-.02,0,0-.02,0-.04,0-.06h-.08s-.01,0,0,.11c-.01,0-.02.01-.03.02-.14.07-.3,1.05-.24,1.05.13,0,.25,0,.38,0,.03.3.06.43.02,0h.01s.02,0,.04,0c0,.09.01.18.02.27l.03-.02c0-.08-.02-.16-.03-.25h.02c.01.1.02.18.03.24l.07-.03.24-.13.16-.08c.05,0,.1,0,.15,0l-.3.16-.26.13-.06.03c0,.05.02.06.02,0l.12-.06.25-.13.25-.13c.12,0,.24,0,.36,0-.01.11-.01.18.01.18.01,0,.02,0,.04,0-.02.07-.02.09.01.01,0,0,0,0,0,0h0s0,0,0,0c-.1.38-.04.2,0,.08,0-.03.01-.05.02-.08h0s0,0,0,0h0s0,0,0,0h0s-.01.05-.02.06c0-.02.01-.04.02-.06,0,.02-.02.04-.03.07-.02.09-.05.18-.08.28h0c-.14.5-.05.28.02.09h-.03c-.03.07-.02.02.01-.09h.06c.03-.07.05-.1.02,0h.05s.3-.02.3-.02l.52-.02c-.03-.05-.06-.11-.09-.16.03.05.06.11.09.16h.03s.03.06.05.08h-.03s0,.02.01.03h.03c.11.19.18.31.22.38,0,0,0,0,0,0,.02.03.03.04.04.04.04.06.02.03,0-.03l.13-.03.27-.07.21-.05s0-.01,0-.02c-.21.05-.41.11-.62.16-.06-.12-.16-.33,0-.06l.12-.03.51-.13c0-.06,0-.13,0-.2h0c0,.07,0,.13,0,.19h0v.07h0v.02h0c0,.06,0,.12,0,.18,0,.08,0,.18,0,.28h0v.04h0s0,.07,0,.1h0s0,.07,0,.12h0v.02s0,0,0,0c0-.04,0-.08,0-.14l-1.59-.03s.01-.06.02-.1h.08s.32,0,.32,0h.63s.54.02.54.02v-.03l-.9-.02h-.51s-.13-.01-.13-.01c.12-.69.06-.47-.05.02-.01.11-.03.23,0,.17-.05.2-.03.06-.01-.07-.01.07-.03.15-.05.23h.11s.3,0,.3,0c.18,0,.37,0,.56.01-.33.03-.66.06-.99.09,0-.04.01-.08.02-.11h-.02s-.01.07-.02.11h0s.01-.08.02-.11h-.02s-.01.08-.02.12c0,0-.02,0-.03,0-.1,0-.31,1.05-.24,1.05h.07c-.01.07-.02.13-.02.16h0c.01-.06.02-.11.03-.16h0c0,.05-.02.1-.03.16h0s.02-.1.03-.16h.02s-.03.1-.05.16h0s0,0,0,0c0,0,0,0,0,.01,0,0,0-.01,0-.02h-.01s0,.03,0,.04h0s0,.03,0,.03c0,.03-.01.06-.02.09h-.19c-.07.34-.03,0-.02-.12h.23s0-.02,0-.04h-.18c.08-.67.03-.47-.05,0,0,0-.03.09-.07.34h0c.02-.1.04-.2.05-.31h0c-.02.1-.03.2-.05.31h.64c-.22.04-.44.07-.65.09,0-.03.01-.06.02-.09h0s0,.06-.02.09c0,0,0,0,0,0,0-.04.01-.07.02-.1h0c0-.05-.01,0-.03.1,0,0-.02,0-.03,0-.11.02-.31,1.05-.24,1.05h.1c0,.06-.01.1-.02.15,0-.05.02-.1.03-.15h.01c-.02.12-.04.21-.05.28h0s0,.07,0,.08c-.05.36,0,.18.03.02,0-.03,0-.06,0-.1h-.01s.02-.1.04-.19h0s0-.06.01-.09c.2,0,.4,0,.61,0l-.39.05-.15.02h-.08c0,.08-.02.14-.02.2h.01s-.01.06-.02.1c0,.08,0,.11.01.05l1.11-.15c-.1.29-.22.88-.15.89.03,0,.07,0,.1.01-.01.07-.01.1,0,.07,0-.02,0-.05.01-.07,0,0,.02,0,.02,0,0,.02,0,.04-.01.05h0s0-.04.01-.05c.07.01.14.02.21.03l-.22.02c-.01.07-.03.12-.04.17h.04s.63-.08.63-.08l.24-.03c.16.02.33.04.49.07l-.66.08-.66.08h-.08s0,.05-.01.06h.12s.24-.04.24-.04l.96-.12.28-.03c.15.02.29.04.44.06-.28.04-.56.09-.84.14l-.66.03-.56.03s0,.04-.01.06l.74-.04c-.25.04-.51.08-.76.12,0-.02.01-.05.02-.08h-.02s0,.06-.02.08c-.17.03-.34.05-.5.08l-.78.04-1.22.07h-.08s0-.07,0-.1c0,.08-.02.16-.03.23v.1s0,0-.01,0c0-.03,0-.07.01-.11v-.04s-.01.09-.02.14c0,0,0,0,0,0,0,0,0,0-.01,0,0-.02,0-.04,0-.06,0,.02,0,.04,0,.06-.13.08-.28,1.04-.23,1.04.03,0,.07,0,.1,0,0,.02,0,.04,0,.07h.02c-.01.12-.02.21-.02.26,0-.06.01-.14.02-.22,0-.01,0-.03,0-.04h0s0-.04,0-.07c.21-.01.42-.02.63-.04l-.51.08-.12.02s0,.03,0,.04c0,.11,0,.17,0,.11l.15-.02.31-.05.57-.09h0s0,.06.01.12c0-.05,0-.08,0-.12h0s0,.08,0,.14h0s0,.03,0,.05h0s0,0,0,0h0s0,0,0,0h0s-.01.02-.02.02c0,0,0-.01,0-.02h0s0,.02,0,.04c-.12.21-.21,1-.19,1,.06,0,.11-.01.17-.02v.05h.01s0-.03,0-.05h.01s0,.03,0,.04h.01v-.05c.1-.01.21-.02.32-.04l-.21.05-.11.03c0,.06,0,.12,0,.19.01-.13.03-.31.03-.05l.07-.02.29-.07.07-.02c0-.05,0-.09,0-.12h0s0,.04,0,.08c0,0,0,.02,0,.04h0s0,.06,0,.1c0-.03,0-.07,0-.1h.02s0,.06,0,.1h.11s.13-.02.13-.02c-.07.02-.14.04-.21.06h-.04s0,.01,0,.02c0,0-.01,0-.02.01h0s-.01,0-.01,0c0,.01,0,.02,0,.03,0,0,0,.01-.01.02v-.05l-.1.03-.31.07-.06.02s0,.04,0,.06l.22-.06.25-.06c-.12.23-.2.98-.18.98.06,0,.13-.01.19-.02,0,.03,0,.04,0,.04,0-.01,0-.02,0-.04,0,0,0,0,.01,0,0,0,0,.01,0,.02h0s0,.01,0,.01c0,.02,0,.04,0,.06-.35.01-.69.02-1.04.04h-.34s-.09.02-.09.02c0,.01,0,.02,0,.03,0,0,0,0,0,.02h.25s.5-.03.5-.03c.19,0,.37-.01.56-.02-.29.07-.57.15-.86.22h-.36s-.11.02-.11.02c0,.03,0,.07,0,.1h.03s-.02,0-.03,0h0s0,0,0,0c0-.02,0-.05,0-.1h0c0-.07,0-.14.01-.21,0,0-.02.12-.03.3h0s0,.01,0,.01c0,0,0,0,0,0h0c0-.08,0-.38-.03-.09,0,.02,0,.06,0,.1,0,0,0,0,0,0,0,0,0,0,0,0,0-.04,0-.07,0-.1,0-.03,0-.02-.02.11-.13.1-.27,1.04-.22,1.04.06,0,.12,0,.18,0,0,.03,0,.06,0,.09h.01s0-.06,0-.09h0s0,.06,0,.09h.04s.24-.07.24-.07l.14-.04c.29,0,.57-.02.85-.03h-.03s-1.03.27-1.03.27l-.13.03h-.02s0,.04,0,.06l.17-.04.7-.18.6-.15c.23,0,.46-.02.69-.03-.58.14-1.17.29-1.75.43-.15,0-.3,0-.44,0,0-.03,0-.06.01-.08h-.02s0,.06,0,.08h-.02s0,.04,0,.05c0,0,0,0,.01,0,0,.02,0,.04,0,.06,0,0,0,0,0,0,0-.01,0-.04,0-.07,0,0,0,0,0,0,0,.02,0,.05,0,.07-.2.05-.41.1-.61.15h-.19s0,.03,0,.05c0,0,0,0,0,0,0-.02,0-.03,0-.05h-.03v.06h0s0-.04,0-.06h0s0-.04-.01.06c0,0,0,0,0,0-.08.02-.17.4-.22.7,0,0-.02,0-.02,0-.09.01-.34,1.02-.24,1.05.03,0,.06,0,.08.02-.04.13-.02.08,0,0,0,0,.02,0,.04,0-.05.19-.08.28-.05.21h0s.03-.12.05-.21c.16.04.31.09.47.14l-.16.02-.33.05h-.03c-.02.07-.02.09,0,.04l.11-.02c.16-.02.33-.04.49-.07.58.18,1.15.39,1.7.62.51.22.99.48,1.42.79.22.16.39.35.51.59-.05.06-.13.14-.26.25-1.81,1.55-5.1,1.99-7.22,2.85-1.95.78-3.22,1.76-3.56,3.61-.15.82.09,1.53.46,2.17.62,1.06,2.38,2.77,1.76,4.27-.09.2-.19.99-.15.9,1.02-2.49-.05-4.07-1.2-5.93-.31-.5-.93-1.39-.47-2.09.42-.64,1.24-1.09,1.92-1.44,1.5-.78,3.15-1.24,4.71-1.76,1.81-.6,3.98-1.15,4.31-3.11.16-.96-.57-1.61-1.53-2.07.13-.02.27-.04.41-.05.16.08.32.16.47.25.55.4,1.38.71,1.39,1.94-.23,1.26-2.46,2.47-1.49,1.91.45-.28,1.13-.7,1.42-1.54.34-.85-.22-1.53-.56-1.81-.36-.3-.75-.54-1.16-.75.14-.02.29-.04.43-.06l1.01-.14.26-.03h.06c.02-.15.04-.29.07-.4-.04.27-.07.44-.07.35h-.05s-.19.03-.19.03l-.38.05-.74.1c-.16.02-.31.04-.46.06-.12-.06-.25-.12-.38-.18.06,0,.13-.02.19-.02l1.17-.16.61-.08.16-.02h.08c.07-.43-.07.62.07-.3.01-.04.02-.09.04-.14-.01.1-.03.2-.04.29.02-.11.03-.22.05-.31.04-.18.07-.38.09-.51l1.99-.49.63-.15.32-.08.06-.02v-.05h-.06s-.24.07-.24.07l-.94.23c-.6.15-1.18.29-1.77.43v-.03c0-.06.02-.12.03-.17.58-.14,1.18-.28,1.78-.43l.84-.2.21-.05.1-.02h.05c.02-.26.03-.47.05-.64.02-.08.03-.17.04-.24-.02.37-.05.83-.08,1.13,0,.1.05-.54.08-1.13.02-.12.02-.21.01-.24,0-.08,0-.14,0-.19h0c0,.06,0,.12,0,.19,0,0,0,0,0,0,0,0,0,0-.01,0,0-.1,0-.15,0-.18h.02v-.06c-.23.06-.46.12-.7.17l-.81.03c.1-.02.19-.05.29-.07l.62-.16h0l.47-.02h.12s0-.03,0-.03c0-.04,0-.07,0-.11l.78-.2,1-.25v-.11h-.06s-.12.05-.12.05l-.25.06-.98.25c-.12.03-.24.06-.36.09v-.04c.56-.14,1.11-.28,1.66-.42.06-.01.12-.19.16-.39,0,.2-.02.39-.02.51h0c0,.07,0,.13,0,.17l-.12.03-.28.07-1.09.28c-.11.02-.21.05-.32.08,0,.02,0,.03,0,.06l.86-.22.75-.19.19-.04c0,.61.02.4.04-.04,0,0,0,0,0-.02h0c0-.16.01-.45.02-.74,0-.03.01-.06.02-.09,0,.07,0,.15,0,.21,0-.08,0-.16,0-.23.02-.12.04-.23.04-.31l.13-.04s0-.04,0-.06l-.13.03c0-.06,0-.11,0-.11-.01,0-.03,0-.04,0,0-.01,0-.03,0-.04l.1-.03.14-.04c0-.26,0-.48,0-.66,0-.03,0-.06.01-.09,0,.14,0,.3,0,.48,0-.14,0-.31.01-.51.04-.22.05-.42.04-.42,0,0-.02,0-.03,0,0-.12,0-.25,0-.39h-.01c0,.07,0,.2,0,.39,0,0-.01,0-.02,0,0-.18,0-.26,0-.29,0-.03,0-.07,0-.1h-.07s-.83.09-.83.09l-.18.02s.01-.05.02-.08h-.03c.08-.33.23-.99.3-1.38h.03c-.06.29-.15.71-.28,1.32.09-.39.21-.94.28-1.32l1.37-.16.98-.12.49-.06.12-.02c-.07.44-.07.5-.03.34,0-.02,0-.08.02-.18,0,.1.05-.16.11-.52l-.15.02-1.24.15-1.6.2s-.02.08-.03.13c0-.05.02-.1.02-.13h-.03s.02-.06.03-.1c0,0,0,0,.02,0,0,.02,0,.06-.01.1h0s.01-.07.02-.1c.97-.12,1.95-.23,2.92-.35.03,0,.08-.11.11-.24,0,.07-.02.14-.04.22.02-.09.04-.19.05-.28,0-.04.02-.08.03-.12-.09.5-.2,1.02-.24,1.21,0,.1.13-.57.24-1.22.04-.17.07-.34.08-.47,0-.04.02-.09.02-.13h0s-.01.08-.02.13c0-.04,0-.07,0-.09,0-.01,0-.03,0-.04h0s0-.03,0-.04h0s.01-.08.02-.11h.01c.01-.08.02-.15.03-.2l-.35.05h-.38s-.4,0-.4,0c.28-.04.55-.07.83-.11h.14s.16,0,.16,0c0-.02.01-.03.02-.02v-.02c.16-.02.33-.05.49-.07.04,0,.09-.14.14-.32-.09.54-.18,1.03-.1.43l-.16.02-.31.04h-.07c0,.06-.02.13-.03.21l.21-.03.32-.04s-.01.08-.02.11h-.11s-.33.06-.33.06h-.09s0,.04,0,.05c.01,0,.02,0,.03,0l.5-.07c-.05.32-.03.26.02.02,0,0,.01-.02.02-.07h-.01c.05-.25.13-.64.19-.99.02-.07.03-.13.03-.19,0-.01,0-.03.01-.04-.08.51-.18,1.04-.22,1.23h.01c.1-.54.16-.94.22-1.25.05-.19.14-.5.26-.97-.11.4-.19.68-.25.88,0-.02,0-.03,0-.05,0,0,0,.02,0,.02,0,.02,0,.03,0,.05,0,.01,0,.03-.01.03,0,.02,0,.05-.01.07,0-.02,0-.04,0-.05,0,0,0-.01,0-.02,0-.02,0-.04,0-.06,0,0,0-.02,0-.03.01-.08.03-.16.04-.25,0,0,0,0,0,.02,0-.07.02-.12.02-.16,0,0,0-.01,0-.02,0,.05-.01.11-.02.16,0-.01,0-.03.01-.04,0-.06.02-.11.03-.16.06-.18.12-.44.15-.63,0-.02,0-.04.01-.05h.03c-.07.29-.16.63-.22.84-.01.07-.03.17-.04.26.07-.24.19-.69.3-1.11h.02c-.03.1-.05.19-.07.28.02-.08.05-.18.08-.28h.14c-.12.72-.06.49.06-.05l-.19.02s0-.02.01-.04h.09s.08-.01.08-.01h.01c.04-.18.08-.37.12-.58h0c-.05.26-.09.47-.11.57h0c.04-.21.08-.4.11-.57h.09s.25,0,.25,0h.13s0,.03,0,.03c0-.05.02-.1.02-.14h.03c.01-.06.03-.12.05-.2-.07.26.07-.45-.03-.06h-.13s-.27,0-.27,0h-.05s.01-.07.02-.1l.1-.02c.14,0,.27,0,.41,0-.01.07-.03.13-.04.19,0-.03.01-.07.03-.12,0-.02,0-.05.02-.07h0s-.01.05-.02.07c-.03.15-.06.26-.08.34,0,.04.04-.14.1-.41h.01s.03-.03.05-.07l1.37-.24.52-.09.13-.02c.04-.23.08-.43.12-.63h.51c0,.12-.01.18-.01.18.04,0,.07,0,.1-.02.05.82.11,1.48.08.53l.25-.04.49-.08.99-.17c2.63-.44,5.23-.89,7.8-1.32-.14,1.04.03.15.18-.79l.4-.03.61-.04h.15s.04-.01.04-.01c.31-.15-.65.33.71-.34l.05-.06.21-.23.4-.57.04-.04.4-.06c1.55-.22,3.03-.43,4.46-.64l.27-.04.13-.02.87-.76,2.05-.64.37-.03h.09c-.01.06.04-.22.1-.58l3.89-.19Z"/>
  </g>
  <g>
    <path class="cls-1" d="m48.54,51c0,.53-.12.92-.36,1.16s-.63.36-1.17.36h-1.91c-.54,0-.92-.12-1.17-.36-.24-.24-.36-.63-.36-1.16v-2.44c0-.54.12-.92.36-1.17.24-.24.63-.36,1.17-.36h1.91c.53,0,.92.12,1.17.36.24.24.36.63.36,1.17v2.44Zm-1.37-2.44c0-.31-.15-.46-.46-.46h-1.3c-.31,0-.46.15-.46.46v2.44c0,.31.15.46.46.46h1.3c.31,0,.46-.15.46-.46v-2.44Z"/>
    <path class="cls-1" d="m55.34,50.54c0,.54-.12.92-.36,1.17-.24.24-.63.36-1.17.36h-.92v.53h-1.37v-.53h-.92c-.54,0-.92-.12-1.17-.36s-.36-.63-.36-1.17v-1.53c0-.53.12-.92.36-1.16s.63-.36,1.17-.36h.92v-.54h1.37v.54h.92c.54,0,.92.12,1.17.36.24.24.36.63.36,1.16v1.53Zm-4.89,0c0,.31.15.46.46.46h.69v-2.44h-.69c-.31,0-.46.15-.46.46v1.53Zm3.51-1.53c0-.31-.15-.46-.46-.46h-.69v2.44h.69c.31,0,.46-.15.46-.46v-1.53Z"/>
    <path class="cls-1" d="m60.68,52.45h-1.37v-3.28l-1.83,3.28h-1.45v-5.35h1.38v3.28l1.83-3.28h1.45v5.35Z"/>
    <path class="cls-1" d="m61.6,52.45v-5.35h1.38v4.28h1.91v-4.28h1.37v4.28h.57v2.06h-1.3l-.08-.99h-3.86Z"/>
    <path class="cls-1" d="m72.1,52.45h-1.37v-3.28l-1.83,3.28h-1.45v-5.35h1.38v3.28l1.83-3.28h1.45v5.35Z"/>
    <path class="cls-1" d="m73.98,52.45h-1.49l2.02-5.35h1.53l2.02,5.35h-1.49l-.34-.95h-1.91l-.34.95Zm.69-1.95h1.22l-.61-1.8-.61,1.8Z"/>
    <path class="cls-1" d="m79.7,52.21c-.21.21-.47.32-.77.32s-.59-.03-.86-.08v-1.03h.34c.1,0,.18-.03.24-.1s.1-.15.1-.24l.23-3.97h4.24v5.35h-1.37v-4.28h-1.6l-.19,3.17c-.03.37-.14.66-.35.87Z"/>
    <path class="cls-1" d="m85.51,48.93h1.83c.53,0,.92.12,1.16.36s.36.63.36,1.17v.46c0,.54-.12.92-.36,1.17-.24.24-.63.36-1.16.36h-3.21v-5.35h1.38v1.83Zm1.99,1.53c0-.31-.15-.46-.46-.46h-1.53v1.38h1.53c.31,0,.46-.15.46-.46v-.46Z"/>
    <path class="cls-1" d="m94.22,52.45h-1.37v-2.18h-1.91v2.18h-1.38v-5.35h1.38v2.1h1.91v-2.1h1.37v5.35Z"/>
    <path class="cls-1" d="m96.51,48.93h1.76c.53,0,.92.12,1.16.36.24.24.36.63.36,1.17v.46c0,.54-.12.92-.36,1.17s-.63.36-1.16.36h-3.13v-5.35h1.38v1.83Zm1.91,1.53c0-.31-.15-.46-.46-.46h-1.45v1.38h1.45c.31,0,.46-.15.46-.46v-.46Zm3.36,1.99h-1.37v-5.35h1.37v5.35Z"/>
    <path class="cls-1" d="m105.99,52.45v-3.28l-1.83,3.28h-1.45v-5.35h1.38v3.28l1.83-3.28h1.45v5.35h-1.37Zm-1.38-5.73c-.66,0-.99-.33-.99-.99v-.23h.99v.19c0,.08.03.14.08.19.05.05.11.08.19.08h.23c.08,0,.14-.03.19-.08s.08-.11.08-.19v-.19h.99v.23c0,.66-.33.99-.99.99h-.76Z"/>
    <path class="cls-1" d="m115.23,52.45h-1.37v-3.28l-1.83,3.28h-1.45v-5.35h1.38v3.28l1.83-3.28h1.45v5.35Z"/>
    <path class="cls-1" d="m120.81,52.45h-1.37v-2.18h-1.91v2.18h-1.38v-5.35h1.38v2.1h1.91v-2.1h1.37v5.35Z"/>
    <path class="cls-1" d="m124.32,52.45h-1.37v-4.28h-1.6v-1.07h4.58v1.07h-1.6v4.28Z"/>
    <path class="cls-1" d="m130.7,52.45h-4.24v-5.35h4.24v1.07h-2.86v1.03h2.25v1.07h-2.25v1.11h2.86v1.07Z"/>
    <path class="cls-1" d="m131.31,47.1h3.21c.53,0,.92.12,1.16.36s.36.63.36,1.17v.76c0,.53-.12.92-.36,1.17s-.63.36-1.16.36h-1.83v1.53h-1.38v-5.35Zm3.36,1.53c0-.31-.15-.46-.46-.46h-1.53v1.68h1.53c.31,0,.46-.15.46-.46v-.76Z"/>
    <path class="cls-1" d="m141.4,52.45h-1.37v-2.18h-1.91v2.18h-1.38v-5.35h1.38v2.1h1.91v-2.1h1.37v5.35Z"/>
    <path class="cls-1" d="m146.55,52.45h-4.24v-5.35h4.24v1.07h-2.86v1.03h2.25v1.07h-2.25v1.11h2.86v1.07Z"/>
    <path class="cls-1" d="m149.76,52.45h-1.37v-4.28h-1.6v-1.07h4.58v1.07h-1.6v4.28Z"/>
    <path class="cls-1" d="m151.22,50.31v-1.07h3.13v1.07h-3.13Z"/>
    <path class="cls-1" d="m159.62,49.47l-1.07,1.91h-1.07l-1.07-1.91v2.98h-1.38v-5.35h1.45l1.53,2.83,1.53-2.83h1.45v5.35h-1.38v-2.98Z"/>
    <path class="cls-1" d="m162.87,52.45h-1.49l2.02-5.35h1.53l2.02,5.35h-1.49l-.34-.95h-1.91l-.34.95Zm.69-1.95h1.22l-.61-1.8-.61,1.8Z"/>
    <path class="cls-1" d="m168.71,52.45h-1.38v-5.35h4.16v1.07h-2.79v4.28Z"/>
    <path class="cls-1" d="m172.07,52.45h-1.49l2.02-5.35h1.53l2.02,5.35h-1.49l-.34-.95h-1.91l-.34.95Zm.69-1.95h1.22l-.61-1.8-.61,1.8Z"/>
    <path class="cls-1" d="m176.23,51.34c1.3.08,2.22.11,2.75.11.12,0,.21-.03.28-.1s.1-.16.1-.28v-.31c0-.31-.15-.46-.46-.46h-1.83v-1.07h1.68c.31,0,.46-.15.46-.46v-.15c0-.31-.15-.46-.46-.46h-2.44v-1.07h2.83c.5,0,.87.11,1.1.34.23.23.35.57.35,1.04,0,.31-.07.55-.21.74s-.32.32-.55.4c.41.11.69.39.84.83.05.16.08.34.08.55v.08c0,.5-.12.87-.35,1.1-.23.23-.6.35-1.1.35-.85,0-1.87-.05-3.06-.15v-1.03Z"/>
    <path class="cls-1" d="m186.09,52.45h-1.37v-3.28l-1.83,3.28h-1.45v-5.35h1.38v3.28l1.83-3.28h1.45v5.35Z"/>
    <path class="cls-1" d="m191.67,52.45h-1.37v-2.18h-1.91v2.18h-1.38v-5.35h1.38v2.1h1.91v-2.1h1.37v5.35Z"/>
  </g>
</svg>