<svg width="5" height="8" viewBox="0 0 5 8" fill="none" xmlns="http://www.w3.org/2000/svg">
<path d="M4.86424 4.31216L1.07685 7.8722C0.989247 7.9546 0.872312 8 0.747627 8C0.622941 8 0.506006 7.9546 0.418408 7.8722L0.139492 7.61008C-0.0419999 7.43929 -0.0419999 7.1617 0.139492 6.99116L3.31986 4.00166L0.135964 1.00884C0.0483657 0.926432 0 0.816579 0 0.699441C0 0.582174 0.0483657 0.472322 0.135964 0.389851L0.414879 0.127804C0.502546 0.0453982 0.619413 4.76837e-07 0.744098 4.76837e-07C0.868783 4.76837e-07 0.985719 0.0453982 1.07332 0.127804L4.86424 3.69109C4.95205 3.77376 5.00028 3.88413 5 4.00146C5.00028 4.11925 4.95205 4.22956 4.86424 4.31216Z" fill="#D9760F"/>
</svg>
