<svg width="14" height="14" viewBox="0 0 14 14" fill="none" xmlns="http://www.w3.org/2000/svg">
<path d="M19 11H5C3.89543 11 3 11.8954 3 13V20C3 21.1046 3.89543 22 5 22H19C20.1046 22 21 21.1046 21 20V13C21 11.8954 20.1046 11 19 11Z" stroke="#018DA7" stroke-linecap="round" stroke-linejoin="round"/>
<path d="M7 11V7.00224C6.99874 5.76298 7.46291 4.56747 8.3024 3.64778C9.14189 2.7281 10.2968 2.14986 11.5429 2.02531C12.7891 1.90077 14.0375 2.23881 15.0459 2.9738C16.0543 3.7088 17 5 17 7C17 8.5621 17 11 17 11" stroke="#018DA7" stroke-linecap="round" stroke-linejoin="round"/>
</svg>
