<svg width="50" height="15" viewBox="0 0 22 15" fill="none" xmlns="http://www.w3.org/2000/svg">
<path d="M0.134293 7.16859L7.00929 0.13734C7.18834 -0.04578 7.47838 -0.04578 7.65738 0.13734C7.83644 0.32046 7.83644 0.617091 7.65738 0.800168L1.56476 7.03126L21.5417 7.03126C21.795 7.03126 22 7.24093 22 7.50003C22 7.75913 21.795 7.96879 21.5417 7.96879L1.56476 7.96879L7.65738 14.1998C7.83644 14.383 7.83644 14.6796 7.65738 14.8627C7.56788 14.9542 7.45058 15 7.33331 15C7.21605 15 7.09879 14.9542 7.00924 14.8627L0.134249 7.83142C-0.0447578 7.64834 -0.0447578 7.35171 0.134293 7.16859Z" fill="white"/>
</svg>
