<?xml version="1.0" encoding="utf-8"?>
<!-- Generator: Adobe Illustrator 27.5.0, SVG Export Plug-In . SVG Version: 6.00 Build 0)  -->
<svg version="1.1" xmlns="http://www.w3.org/2000/svg" xmlns:xlink="http://www.w3.org/1999/xlink" x="0px" y="0px"
	 viewBox="0 0 30.6 30.6" style="enable-background:new 0 0 30.6 30.6;" xml:space="preserve">
<style type="text/css">
	.st0{fill:#FFFFFF;}
	.st1{fill:#D97510;}
</style>
<g id="Слой_1">
	<path class="st1" d="M0.5,0c1.1,0,2.2,0,3.3,0c0.4,0.1,0.8,0.3,1,0.8C4.8,1,4.9,1.2,5,1.5c0.1,0.4,0.3,0.9,0.4,1.3
		c0.2,0,0.3,0,0.4,0c7.5,0,15,0,22.4,0c0.8,0,1.5,0.3,2,1c0.2,0.3,0.3,0.6,0.4,0.9c0,0.3,0,0.6,0,1c-0.1,0.3-0.2,0.6-0.3,0.8
		c-1.5,3.3-3.1,6.6-4.7,9.9c-0.1,0.2-0.2,0.4-0.4,0.6c-0.6,0.8-1.4,1.2-2.4,1.2c-3,0-6,0-9,0c-1.3,0-2.7,0-4,0c-0.1,0-0.3,0-0.3,0.1
		c-0.4,0.4-0.8,0.9-1.2,1.4C8,20,7.6,20.4,7.2,20.9c0.2,0,0.3,0,0.4,0c6.4,0,12.8,0,19.2,0c0.1,0,0.2,0,0.3,0c0.4,0,0.7,0.2,0.7,0.6
		c0,0.5,0.1,1,0,1.5c0,0.5-0.3,0.7-0.8,0.7c-6.6,0-13.2,0-19.7,0c-0.7,0-1.3-0.2-1.8-0.6C4.2,22,4.1,20.3,5.2,19
		c0.5-0.6,0.9-1.1,1.4-1.6c0.2-0.2,0.2-0.4,0.1-0.6c-0.2-0.6-0.4-1.2-0.5-1.7C5,11,3.7,7,2.5,3.1C2.5,2.8,2.4,2.8,2.2,2.8
		c-0.4,0-0.9,0-1.3,0C0.3,2.8,0,2.5,0,1.9c0-0.3,0-0.6,0-1C0,0.5,0.1,0.2,0.5,0z M22.3,27.8c0,1.6,1.3,2.8,2.8,2.8
		c1.5,0,2.8-1.2,2.8-2.8c0-1.6-1.3-2.8-2.8-2.8C23.5,25.1,22.3,26.2,22.3,27.8z M8.3,25.1c-1.5,0-2.8,1.3-2.8,2.8
		c0,1.5,1.3,2.8,2.8,2.8c1.5,0,2.8-1.3,2.8-2.8C11.1,26.3,9.9,25,8.3,25.1z"/>
</g>
<g id="Слой_2">
</g>
</svg>
