<?xml version="1.0" encoding="utf-8"?>
<!-- Generator: Adobe Illustrator 27.5.0, SVG Export Plug-In . SVG Version: 6.00 Build 0)  -->
<svg version="1.1" xmlns="http://www.w3.org/2000/svg" xmlns:xlink="http://www.w3.org/1999/xlink" x="0px" y="0px"
	 viewBox="0 0 26.1 26.1" style="enable-background:new 0 0 26.1 26.1;" xml:space="preserve">
<style type="text/css">
	.st0{fill:#FFFFFF;}
	.st1{fill:#D97510;}
</style>
<g id="Слой_1">
	<path class="st1" d="M16.9,20c-5.3,3.4-11.6,1.7-14.7-2.6C-1,13.1-0.7,7.2,3.1,3.3C6.8-0.5,12.8-1.1,17.2,2c4.2,3,6.3,9.4,2.8,14.9
		c0.1,0.1,0.2,0.2,0.3,0.3c1.7,1.7,3.5,3.5,5.2,5.2c1,1,0.9,2.6-0.3,3.4c-0.9,0.6-2,0.5-2.8-0.3c-1.5-1.5-3.1-3.1-4.6-4.6
		C17.5,20.6,17.2,20.3,16.9,20z M3.3,10.9c0,4.2,3.4,7.6,7.6,7.6c4.2,0,7.6-3.4,7.6-7.6c0-4.2-3.4-7.6-7.6-7.7
		C6.7,3.3,3.3,6.7,3.3,10.9z"/>
</g>
<g id="Слой_2">
</g>
</svg>
