<?xml version="1.0" encoding="utf-8"?>
<!-- Generator: Adobe Illustrator 27.5.0, SVG Export Plug-In . SVG Version: 6.00 Build 0)  -->
<svg version="1.1" xmlns="http://www.w3.org/2000/svg" xmlns:xlink="http://www.w3.org/1999/xlink" x="0px" y="0px"
	 viewBox="0 0 28.3 30.6" style="enable-background:new 0 0 28.3 30.6;" xml:space="preserve">
<style type="text/css">
	.st0{fill:#FFFFFF;}
	.st1{fill:#D97510;}
</style>
<g id="Слой_1">
	<g>
		<path class="st1" d="M8.5,8c0-0.8-0.1-1.6-0.1-2.4c0-2.8,1.8-5.1,4.5-5.5c1.5-0.2,3-0.2,4.3,0.6c2,1.2,2.8,3,2.6,5.3
			c0,0.6-0.1,1.3-0.1,1.9c0.7,0.2,0.9,0.5,0.9,1.2c0,0.8-0.3,1.5-0.9,2.1c-0.1,0.1-0.2,0.3-0.2,0.5c-0.1,1.5-0.4,2.9-1.4,4.1
			C18.1,15.9,18,16,18,16.1c0,0.7,0,1.4,0,2.1c0,0.7,0.5,1.2,1.3,1.4c2.2,0.4,4.3,1.1,6.2,2.3c0.8,0.5,1.5,1.1,2.2,1.8
			c0.5,0.4,0.6,1.1,0.6,1.7c0,1.7,0,3.4,0,5.1c-9.4,0-18.8,0-28.3,0c0-0.1,0-0.3,0-0.5c0-1.5,0-3.1,0-4.6c0-0.7,0.2-1.4,0.7-1.9
			c0.9-1.1,2.2-1.8,3.4-2.4C5.7,20.5,7.3,20,9,19.6c0.9-0.2,1.3-0.7,1.3-1.6c0-0.1,0-0.3,0-0.4c0.1-1,0-1.8-0.7-2.7
			c-0.6-0.7-0.7-1.6-0.7-2.5c0-0.5-0.1-1-0.5-1.4c-0.5-0.5-0.7-1.2-0.7-1.9C7.7,8.5,7.9,8.2,8.5,8z"/>
	</g>
</g>
<g id="Слой_2">
</g>
</svg>
