<svg width="30" height="34" viewBox="0 0 30 34" fill="none" xmlns="http://www.w3.org/2000/svg">
<path d="M6.16667 0C4.975 0 4 0.95625 4 2.125V31.875C4 33.0438 4.975 34 6.16667 34H27.8333C29.025 34 30 33.0438 30 31.875V8.5L21.3333 0H6.16667Z" fill="#E3E3E3"/>
<path d="M23.25 9H30L21 0V6.75C21 7.9875 22.0125 9 23.25 9Z" fill="#E3E3E3"/>
<path d="M30 14L24 8H30V14Z" fill="#B9B9B9"/>
<path d="M26 27.9167C26 28.5125 25.5125 29 24.9167 29H1.08333C0.4875 29 0 28.5125 0 27.9167V17.0833C0 16.4875 0.4875 16 1.08333 16H24.9167C25.5125 16 26 16.4875 26 17.0833V27.9167Z" fill="#F15642"/>
<path d="M5 20.5909C5 20.3083 5.2382 20 5.62185 20H7.73706C8.92808 20 10 20.745 10 22.1731C10 23.5261 8.92808 24.2797 7.73706 24.2797H6.2082V25.4102C6.2082 25.787 5.95167 26 5.62185 26C5.31951 26 5 25.787 5 25.4102V20.5909ZM6.2082 21.078V23.2103H7.73706C8.35089 23.2103 8.83646 22.704 8.83646 22.1731C8.83646 21.5747 8.35089 21.078 7.73706 21.078H6.2082Z" fill="white"/>
<path d="M11.6491 26C11.3387 26 11 25.8438 11 25.4632V20.5379C11 20.2266 11.3387 20 11.6491 20H13.8022C18.0989 20 18.0048 26 13.8868 26H11.6491ZM12.2417 21.0584V24.9427H13.8022C16.3409 24.9427 16.4538 21.0584 13.8022 21.0584H12.2417Z" fill="white"/>
<path d="M19.0635 21.1289V22.5071H21.1368C21.4296 22.5071 21.7224 22.8194 21.7224 23.122C21.7224 23.4083 21.4296 23.6425 21.1368 23.6425H19.0635V25.4632C19.0635 25.7669 18.8612 26 18.5765 26C18.2186 26 18 25.7669 18 25.4632V20.5379C18 20.2266 18.2196 20 18.5765 20H21.4306C21.7885 20 22 20.2266 22 20.5379C22 20.8155 21.7885 21.1278 21.4306 21.1278H19.0635V21.1289Z" fill="white"/>
<path d="M23.95 29H4V30H23.95C24.5275 30 25 29.55 25 29V28C25 28.55 24.5275 29 23.95 29Z" fill="#B9B9B9"/>
</svg>
