<svg width="5" height="7" viewBox="0 0 5 7" fill="none" xmlns="http://www.w3.org/2000/svg">
<path d="M4.65317 3.73446L1.75323 6.50291C1.68616 6.56699 1.59662 6.60229 1.50115 6.60229C1.40569 6.60229 1.31615 6.56699 1.24908 6.50291L1.03552 6.29908C0.896552 6.16626 0.896552 5.95039 1.03552 5.81778L3.47067 3.49301L1.03282 1.16565C0.965744 1.10157 0.928711 1.01614 0.928711 0.925053C0.928711 0.83386 0.965744 0.748434 1.03282 0.6843L1.24638 0.480521C1.3135 0.416439 1.40298 0.381135 1.49845 0.381135C1.59392 0.381135 1.68346 0.416439 1.75053 0.480521L4.65317 3.25149C4.7204 3.31578 4.75733 3.40161 4.75712 3.49285C4.75733 3.58445 4.7204 3.67023 4.65317 3.73446Z" fill="white"/>
</svg>
