<svg width="34" height="34" viewBox="0 0 34 34" fill="none" xmlns="http://www.w3.org/2000/svg">
<path d="M17.1991 0.000219403C17.1901 0.000152997 17.2081 0.000219403 17.1991 0.000219403V0.000219403ZM3.05487 2.65645H3.05467C3.05361 2.65652 3.05493 2.65645 3.05487 2.65645ZM24.3709 0.000219403C23.343 -0.010804 22.2645 0.394006 21.5349 1.11272C20.9672 1.65891 20.4691 1.65731 19.9019 1.11272C19.1916 0.413065 18.1969 0.00739124 17.1991 0.000219403C16.1919 0.000219403 15.1922 0.404897 14.4737 1.11265C14.2494 1.33365 13.9509 1.46068 13.655 1.46115H13.6533C13.3574 1.46115 13.0689 1.33743 12.8408 1.11272C12.1121 0.394936 11.1036 -0.00940945 10.0789 0.00041862C9.09136 0.0109107 8.11944 0.416318 7.41262 1.11265C7.1879 1.33398 6.89007 1.46102 6.59543 1.46115H6.5949C6.28797 1.46115 5.99605 1.33896 5.77292 1.1171C5.04857 0.396862 4.06742 0.000219403 3.05467 0.000219403C1.37493 0.0146959 0 1.40464 0 3.09839V26.0313C0 30.4253 3.57476 34 7.9687 34H14.8749C16.6371 33.9299 16.6357 31.4133 14.8749 31.3438H7.9687C5.03941 31.3438 2.65623 28.9606 2.65623 26.0313V3.09845C2.65623 2.86092 2.83088 2.65845 3.05467 2.65652H3.05487C3.36166 2.65659 3.67696 2.77891 3.89995 3.00077C4.62424 3.72094 5.58114 4.11752 6.59476 4.11745H6.59649C7.59689 4.11699 8.54862 3.722 9.27643 3.00515C9.49471 2.79013 9.80522 2.65984 10.107 2.65665C10.4249 2.65247 10.755 2.78688 10.9767 3.00522C11.7051 3.72267 12.6552 4.11752 13.653 4.11752H13.6593C14.6453 4.11599 15.6215 3.71058 16.3377 3.00522C16.5563 2.78986 16.8928 2.65659 17.1991 2.65659C17.503 2.65878 17.8219 2.79245 18.0379 3.00522C19.5953 4.56197 21.8411 4.56337 23.3989 3.00515C23.6179 2.7894 23.995 2.65652 24.3045 2.65652C24.5168 2.6692 24.703 2.86809 24.703 3.09759V12.1526C24.7731 13.9147 27.2897 13.9134 27.3592 12.1526V3.09752C27.3592 1.46082 26.0311 0.000219403 24.3709 0.000219403ZM6.64058 20.1212C4.87844 20.1913 4.87977 22.7079 6.64058 22.7774H12.6171C14.3793 22.7073 14.3779 20.1907 12.6171 20.1212H6.64058ZM16.1366 16.1368C16.1366 15.4033 15.542 14.8087 14.8085 14.8087H6.64058C4.87844 14.8789 4.87977 17.3954 6.64058 17.465H14.8085C15.542 17.465 16.1366 16.8704 16.1366 16.1368ZM14.8085 9.49626H6.64058C4.87844 9.56638 4.87977 12.083 6.64058 12.1525H14.8085C16.5706 12.0824 16.5693 9.56579 14.8085 9.49626ZM33.9998 25.0352C33.9998 29.9784 29.9782 34 25.035 34C13.142 33.5076 13.1454 16.561 25.0351 16.0704C29.9782 16.0704 33.9998 20.092 33.9998 25.0352ZM31.3436 25.0352C31.3436 21.5567 28.5135 18.7267 25.035 18.7267C16.6659 19.0732 16.6683 30.9985 25.0351 31.3438C28.5135 31.3438 31.3436 28.5138 31.3436 25.0352ZM22.0467 10.6916C22.0467 11.6084 21.3035 12.3517 20.3866 12.3517C18.1844 12.2643 18.185 9.11854 20.3866 9.03142C21.3035 9.03142 22.0467 9.7747 22.0467 10.6916ZM26.3631 27.0938V22.9767C26.3631 22.2431 25.7685 21.6485 25.035 21.6485H23.7069C21.9447 21.7187 21.9461 24.2352 23.7069 24.3048V27.0938C23.7069 27.8273 24.3015 28.4219 25.035 28.4219C25.7685 28.4219 26.3631 27.8273 26.3631 27.0938Z" fill="#D9760F"/>
</svg>
