<svg width="34" height="34" viewBox="0 0 34 34" fill="none" xmlns="http://www.w3.org/2000/svg">
<path d="M1.32812 33.9999C0.5946 33.9999 0 33.4053 0 32.6718C0 26.0076 5.42173 20.5859 12.0859 20.5859H14.0781C15.8402 20.656 15.8389 23.1726 14.0781 23.2421H12.0859C6.88638 23.2421 2.65624 27.4723 2.65624 32.6718C2.65624 33.4053 2.06164 33.9999 1.32812 33.9999ZM21.914 8.96483C21.914 4.02162 17.8925 0 12.9492 0C1.05559 0.492534 1.06024 17.4394 12.9492 17.9297C17.8925 17.9297 21.914 13.908 21.914 8.96483ZM19.2578 8.96483C19.2578 12.4434 16.4277 15.2734 12.9492 15.2734C4.57963 14.9268 4.58289 3.00122 12.9492 2.65624C16.4278 2.65624 19.2578 5.48627 19.2578 8.96483ZM20.0854 31.3437H23.2421C25.0043 31.4138 25.003 33.9304 23.2421 33.9999H19.9863C17.7412 34.0123 16.5491 31.5945 17.9111 29.8133C18.716 28.7465 19.8006 28.0957 20.6721 27.5727C21.5025 27.0744 22.0468 26.7257 22.0468 26.4296C22.0468 25.7929 21.5348 25.2343 20.9511 25.2343C20.3341 25.2343 19.8457 25.5737 19.8408 25.5771L19.8554 25.5664L19.8546 25.5652C19.0024 26.2227 17.7199 25.5893 17.7304 24.5039C17.7304 24.0694 17.94 23.6849 18.2625 23.4426L18.2617 23.4414C19.4532 22.5469 21.9869 21.962 23.632 23.7509C24.3227 24.4807 24.7031 25.4321 24.7031 26.4296C24.7031 28.2517 23.2257 29.1381 22.0387 29.8505C21.3213 30.2809 20.5803 30.7255 20.0854 31.3437ZM32.6718 22.5781C31.9383 22.5781 31.3437 23.1727 31.3437 23.9062V28.0234H30.0156C29.6494 28.0234 29.3515 27.7255 29.3515 27.3593V23.9062C29.2814 22.144 26.7648 22.1454 26.6953 23.9062V27.3593C26.6953 29.1901 28.1847 30.6796 30.0156 30.6796H31.3437V32.6718C31.4138 34.434 33.9304 34.4326 33.9999 32.6718V23.9062C33.9999 23.1727 33.4053 22.5781 32.6718 22.5781Z" fill="#D9760F"/>
</svg>
