<svg width="34" height="34" viewBox="0 0 34 34" fill="none" xmlns="http://www.w3.org/2000/svg">
<path d="M27.8908 31.3433C27.1572 31.3433 26.5626 30.7487 26.5626 30.0152C26.5626 26.3535 23.5837 23.3745 19.922 23.3745H5.3125C2.38319 23.3745 0 20.9914 0 18.062V12.5503C0.070125 10.7882 2.58672 10.7895 2.65625 12.5503V18.062C2.65625 19.5267 3.84784 20.7183 5.3125 20.7183H19.922C24.5226 20.7183 28.3536 24.0776 29.0908 28.472C30.405 27.9834 31.3438 26.7164 31.3438 25.2341V19.3238C31.3438 18.5914 30.748 17.9956 30.0156 17.9956H25.2344C23.0374 17.9956 21.25 16.2082 21.25 14.0113V11.8863C21.25 9.68928 23.0374 7.90189 25.2344 7.90189H27.1602C28.9223 7.97201 28.921 10.4886 27.1602 10.5581H25.2344C24.502 10.5581 23.9062 11.1539 23.9062 11.8863V14.0113C23.9062 14.7436 24.502 15.3394 25.2344 15.3394H30.0156C32.2126 15.3394 34 17.1268 34 19.3238V25.2341C34 28.6027 31.2594 31.3433 27.8908 31.3433ZM18.5938 16.7339V7.88529C18.5938 6.42979 19.7779 5.24564 21.2334 5.24564H26.0312C28.9606 5.24564 31.3438 7.62883 31.3438 10.5581V12.1519C31.4139 13.914 33.9305 13.9127 34 12.1519V10.5581C34 6.16417 30.4252 2.58939 26.0312 2.58939H21.2334C18.3132 2.58939 15.9375 4.96514 15.9375 7.88529V16.7339C15.9375 17.4674 16.5321 18.062 17.2656 18.062C17.9991 18.062 18.5938 17.4674 18.5938 16.7339ZM0.382234 6.16696C-0.13268 5.64454 -0.12657 4.80364 0.395848 4.28872C0.918199 3.77381 1.75904 3.77992 2.27402 4.30234L5.33289 7.40577C5.8741 7.97533 6.84562 7.975 7.3873 7.40397L14.3297 0.393134C14.8458 -0.128022 15.6868 -0.132272 16.208 0.38397C16.7291 0.90008 16.7332 1.74098 16.2171 2.2622L9.27503 9.27258C7.74217 10.8875 4.97575 10.8874 3.4429 9.27218L0.382234 6.16696ZM23.9064 30.0152C23.9064 32.2122 22.119 33.9995 19.922 33.9995C14.6362 33.7807 14.6377 26.2489 19.922 26.0308C22.119 26.0308 23.9064 27.8182 23.9064 30.0152ZM21.2501 30.0152C21.2501 29.2828 20.6543 28.687 19.922 28.687C18.1601 28.76 18.1606 31.2706 19.922 31.3433C20.6543 31.3433 21.2501 30.7476 21.2501 30.0152ZM13.3477 29.9488C13.3477 30.6823 12.7531 31.2769 12.0195 31.2769H7.76282C6.28004 35.4997 0.08925 34.5451 0 30.0151C0.0808164 25.5631 6.12252 24.5259 7.71634 28.6206H12.0195C12.7531 28.6206 13.3477 29.2152 13.3477 29.9488ZM5.3125 30.0152C5.3125 29.2828 4.7167 28.687 3.98438 28.687C2.22242 28.76 2.22295 31.2706 3.98438 31.3433C4.7167 31.3433 5.3125 30.7476 5.3125 30.0152Z" fill="#D9760F"/>
</svg>
