<svg width="34" height="34" viewBox="0 0 34 34" fill="none" xmlns="http://www.w3.org/2000/svg">
<path d="M34 7.96875V15.5391C33.9299 17.3012 31.4133 17.2999 31.3438 15.5391V7.96875C31.3438 5.03944 28.9606 2.65625 26.0312 2.65625H7.96875C5.03944 2.65625 2.65625 5.03944 2.65625 7.96875V26.0312C2.65625 28.9606 5.03944 31.3438 7.96875 31.3438H11.7157C13.4778 31.4139 13.4765 33.9305 11.7157 34H7.96875C3.57478 34 0 30.4252 0 26.0312V7.96875C0 3.57478 3.57478 0 7.96875 0H26.0312C30.4252 0 34 3.57478 34 7.96875ZM20.3867 5.97656H13.6133C11.8511 6.04669 11.8525 8.56328 13.6133 8.63281H20.3867C22.1489 8.56269 22.1475 6.04609 20.3867 5.97656ZM29.3797 18.7266H19.6281C17.0805 18.7266 15.0078 20.7992 15.0078 23.3468V29.3797C15.0078 31.9273 17.0805 34 19.6281 34H29.3797C31.9273 34 34 31.9273 34 29.3797V23.3468C34 20.7992 31.9273 18.7266 29.3797 18.7266ZM31.3438 29.3797C31.3438 30.4627 30.4627 31.3438 29.3797 31.3438H19.6281C18.5451 31.3438 17.6641 30.4627 17.6641 29.3797V26.6953H27.3594C29.1215 26.6252 29.1202 24.1086 27.3594 24.0391H17.6641V23.3468C17.6641 22.2639 18.5451 21.3828 19.6281 21.3828H29.3797C30.4627 21.3828 31.3438 22.2639 31.3438 23.3468V29.3797Z" fill="#D9760F"/>
</svg>
