<svg width="50" height="15" viewBox="0 0 22 15" fill="none" xmlns="http://www.w3.org/2000/svg">
<path d="M21.8657 7.16859L14.9907 0.13734C14.8117 -0.04578 14.5216 -0.04578 14.3426 0.13734C14.1636 0.32046 14.1636 0.617091 14.3426 0.800168L20.4352 7.03126H0.458347C0.205004 7.03126 0 7.24093 0 7.50003C0 7.75913 0.205004 7.96879 0.458347 7.96879H20.4352L14.3426 14.1998C14.1636 14.383 14.1636 14.6796 14.3426 14.8627C14.4321 14.9542 14.5494 15 14.6667 15C14.7839 15 14.9012 14.9542 14.9908 14.8627L21.8658 7.83142C22.0448 7.64834 22.0448 7.35171 21.8657 7.16859Z" fill="white"/>
</svg>
