<svg width="34" height="35" viewBox="0 0 34 35" fill="none" xmlns="http://www.w3.org/2000/svg">
<path fill-rule="evenodd" clip-rule="evenodd" d="M0 17.5C0 7.83502 7.61116 0 17 0C26.3888 0 34 7.83502 34 17.5C34 27.165 26.3888 35 17 35C7.61116 35 0 27.165 0 17.5ZM16.5 18C18.9822 18 21 15.9818 21 13.5007C21 11.0188 18.9822 9 16.5 9C14.0183 9 12 11.0188 12 13.5007C12 15.9818 14.0183 18 16.5 18ZM21.39 20.352C20.5844 20.8455 19.7097 21.1955 18.8028 21.3971L21.2935 23.8267C21.8037 24.3234 21.8037 25.13 21.2935 25.6271C20.7838 26.1243 19.9576 26.1243 19.4484 25.6271L16.9995 23.2396L14.5528 25.6271C14.2977 25.8754 13.9634 25.9997 13.6291 25.9997C13.2953 25.9997 12.9615 25.8754 12.7064 25.6271C12.1967 25.13 12.1967 24.3239 12.7059 23.8267L15.1969 21.3971C14.2899 21.1955 13.4153 20.845 12.6096 20.352C11.9999 19.9771 11.8168 19.1915 12.2009 18.5963C12.584 18.0004 13.3897 17.8209 14.0004 18.1959C15.8244 19.315 18.1741 19.3153 19.9992 18.1959C20.61 17.8209 21.4153 18.0004 21.7992 18.5963C22.1834 19.191 21.9997 19.9771 21.39 20.352Z" fill="#B9B9B9"/>
</svg>
