<svg width="35" height="35" viewBox="0 0 35 35" fill="none" xmlns="http://www.w3.org/2000/svg">
<path fill-rule="evenodd" clip-rule="evenodd" d="M17.5 0C7.83502 0 0 7.83502 0 17.5C0 27.165 7.83502 35 17.5 35C27.165 35 35 27.165 35 17.5C35 7.83502 27.165 0 17.5 0ZM17.2913 15.3298L17.2545 14.7242C17.1439 13.1548 18.1143 11.7212 19.6497 11.1651C20.2148 10.9674 21.1729 10.9427 21.7993 11.1157C22.045 11.1898 22.5118 11.437 22.8434 11.6594L23.4453 12.0673L24.1086 11.8572C24.4771 11.746 24.9685 11.5606 25.1896 11.437C25.3984 11.3258 25.5826 11.264 25.5826 11.3011C25.5826 11.5112 25.1282 12.2279 24.7474 12.6234C24.2315 13.1795 24.3789 13.2289 25.423 12.8582C26.0494 12.6481 26.0617 12.6481 25.9389 12.8829C25.8652 13.0065 25.4844 13.439 25.079 13.8344C24.3911 14.5141 24.3543 14.5883 24.3543 15.1567C24.3543 16.0342 23.9367 17.8631 23.519 18.8641C22.7452 20.7425 21.0869 22.6827 19.4286 23.659C17.0948 25.0307 13.9871 25.3768 11.3707 24.5735C10.4986 24.3016 9 23.6096 9 23.486C9 23.4489 9.45449 23.3995 10.0072 23.3871C11.1619 23.3624 12.3165 23.0411 13.2992 22.4727L13.9625 22.0772L13.2009 21.8177C12.12 21.4469 11.1496 20.5942 10.9039 19.791C10.8302 19.5315 10.8548 19.5191 11.5427 19.5191L12.2551 19.5067L11.6532 19.2225C10.9408 18.8641 10.2898 18.2586 9.97039 17.6407C9.73701 17.1958 9.4422 16.0712 9.52819 15.9847C9.55275 15.9477 9.81071 16.0218 10.1055 16.1207C10.9531 16.4296 11.0636 16.3555 10.5723 15.8364C9.65102 14.8972 9.3685 13.5008 9.81071 12.1785L10.0195 11.5853L10.8302 12.3886C12.4885 14.0075 14.4416 14.9714 16.6771 15.2556L17.2913 15.3298Z" fill="#B9B9B9"/>
</svg>
