<svg width="8" height="5" viewBox="0 0 8 5" fill="none" xmlns="http://www.w3.org/2000/svg">
<path d="M3.68784 4.86424L0.127804 1.07685C0.045398 0.989247 0 0.872312 0 0.747627C0 0.622941 0.045398 0.506006 0.127804 0.418408L0.389915 0.139492C0.560711 -0.0419999 0.838302 -0.0419999 1.00884 0.139492L3.99834 3.31986L6.99116 0.135964C7.07357 0.0483657 7.18342 0 7.30056 0C7.41783 0 7.52768 0.0483657 7.61015 0.135964L7.8722 0.414879C7.9546 0.502546 8 0.619413 8 0.744098C8 0.868783 7.9546 0.985719 7.8722 1.07332L4.30891 4.86424C4.22624 4.95205 4.11587 5.00028 3.99854 5C3.88075 5.00028 3.77044 4.95205 3.68784 4.86424Z" fill="white"/>
</svg>
