<svg width="34" height="35" viewBox="0 0 34 35" fill="none" xmlns="http://www.w3.org/2000/svg">
<path fill-rule="evenodd" clip-rule="evenodd" d="M17 0C7.61116 0 0 7.83502 0 17.5C0 27.165 7.61116 35 17 35C26.3888 35 34 27.165 34 17.5C34 7.83502 26.3888 0 17 0ZM18.374 22.749C18.2076 22.9231 17.8827 22.9582 17.8827 22.9582H16.8069C16.8069 22.9582 14.4334 23.0971 12.3425 20.9778C10.0623 18.6656 8.04889 14.0781 8.04889 14.0781C8.04889 14.0781 7.93268 13.7772 8.05858 13.6323C8.20032 13.4685 8.58681 13.4582 8.58681 13.4582L11.1584 13.4419C11.1584 13.4419 11.4005 13.4805 11.5739 13.6048C11.7174 13.7077 11.7976 13.8989 11.7976 13.8989C11.7976 13.8989 12.2131 14.9225 12.7633 15.8484C13.8383 17.6565 14.3383 18.0518 14.7028 17.858C15.2346 17.5759 15.0752 15.3023 15.0752 15.3023C15.0752 15.3023 15.0849 14.4776 14.8076 14.1098C14.5928 13.8252 14.1878 13.742 14.0091 13.7189C13.8638 13.7 14.1015 13.3725 14.4096 13.2259C14.8727 13.0056 15.6897 12.9927 16.6555 13.0021C17.4082 13.0099 17.6248 13.0553 17.9188 13.1247C18.6013 13.2851 18.58 13.7991 18.534 14.9083C18.5203 15.24 18.5043 15.625 18.5043 16.0696C18.5043 16.1696 18.5013 16.2761 18.4982 16.3857C18.4823 16.9539 18.464 17.6047 18.8485 17.8469C19.0457 17.9703 19.5273 17.8649 20.7325 15.8725C21.3039 14.9277 21.7318 13.8175 21.7318 13.8175C21.7318 13.8175 21.826 13.6194 21.9712 13.5345C22.12 13.448 22.3207 13.4745 22.3207 13.4745L25.027 13.4582C25.027 13.4582 25.8405 13.3631 25.9717 13.7214C26.1099 14.0961 25.668 14.9723 24.5622 16.4074C23.5137 17.7686 23.0033 18.2701 23.0496 18.7134C23.0836 19.0376 23.4154 19.3307 24.0525 19.9061C25.3816 21.1079 25.7379 21.7402 25.8235 21.8921C25.8306 21.9047 25.8358 21.9139 25.8396 21.92C26.4356 22.8828 25.1785 22.9582 25.1785 22.9582L22.7741 22.9908C22.7741 22.9908 22.2582 23.0902 21.5786 22.6359C21.2226 22.398 20.8747 22.0096 20.5433 21.6397C20.0372 21.0747 19.5698 20.5527 19.1707 20.676C18.5008 20.8835 18.521 22.2886 18.521 22.2886C18.521 22.2886 18.5263 22.5896 18.374 22.749Z" fill="#B9B9B9"/>
</svg>
