<svg width="35" height="35" viewBox="0 0 35 35" fill="none" xmlns="http://www.w3.org/2000/svg">
<path fill-rule="evenodd" clip-rule="evenodd" d="M17.5 0C7.83502 0 0 7.83502 0 17.5C0 27.165 7.83502 35 17.5 35C27.165 35 35 27.165 35 17.5C35 7.83502 27.165 0 17.5 0ZM24.9231 11.3881C25.7406 11.6017 26.3844 12.2309 26.6029 13.03C27 14.4782 27 17.5 27 17.5C27 17.5 27 20.5217 26.6029 21.97C26.3844 22.7691 25.7406 23.3983 24.9231 23.612C23.4415 24 17.5 24 17.5 24C17.5 24 11.5585 24 10.0768 23.612C9.25929 23.3983 8.61545 22.7691 8.39695 21.97C8 20.5217 8 17.5 8 17.5C8 17.5 8 14.4782 8.39695 13.03C8.61545 12.2309 9.25929 11.6017 10.0768 11.3881C11.5585 11 17.5 11 17.5 11C17.5 11 23.4415 11 24.9231 11.3881Z" fill="#B9B9B9"/>
<path d="M16 21V15L21 18.0001L16 21Z" fill="#B9B9B9"/>
</svg>
